<?xml version="1.0" encoding="utf-8"?>
<!-- Generator: Adobe Illustrator 14.0.0, SVG Export Plug-In . SVG Version: 6.00 Build 43363)  -->
<!DOCTYPE svg PUBLIC "-//W3C//DTD SVG 1.1//EN" "http://www.w3.org/Graphics/SVG/1.1/DTD/svg11.dtd">
<svg version="1.1" id="Layer_1" xmlns="http://www.w3.org/2000/svg" xmlns:xlink="http://www.w3.org/1999/xlink" x="0px" y="0px"
	 width="235px" height="37px" viewBox="0 0 235 37" enable-background="new 0 0 235 37" xml:space="preserve">
<g>
	<path fill="#FFFFFF" d="M8.645,26.293h4.34c3.181,0,4.178-1.32,4.743-4.607h0.054v4.688H4.737v-0.08h1.698V7.59H4.737V7.51h5.605
		v0.08H8.645V26.293z"/>
	<path fill="none" stroke="#FFFFFF" stroke-width="0.25" stroke-miterlimit="10" d="M8.645,26.293h4.34
		c3.181,0,4.178-1.32,4.743-4.607h0.054v4.688H4.737v-0.08h1.698V7.59H4.737V7.51h5.605v0.08H8.645V26.293z"/>
	<path fill="#FFFFFF" d="M25.861,26.293v0.08h-4.582v-0.08h0.109c1.266,0,1.913-1.401,2.478-2.964L29.634,7.51h0.997l7.33,18.783
		h1.511v0.08h-5.66v-0.08h1.779l-3.127-8.003h-6.656l-1.833,5.065c-0.594,1.591-0.215,2.938,1.698,2.938H25.861z M25.834,18.208
		h6.603l-3.396-8.759L25.834,18.208z"/>
	<path fill="none" stroke="#FFFFFF" stroke-width="0.25" stroke-miterlimit="10" d="M25.861,26.293v0.08h-4.582v-0.08h0.109
		c1.266,0,1.913-1.401,2.478-2.964L29.634,7.51h0.997l7.33,18.783h1.511v0.08h-5.66v-0.08h1.779l-3.127-8.003h-6.656l-1.833,5.065
		c-0.594,1.591-0.215,2.938,1.698,2.938H25.861z M25.834,18.208h6.603l-3.396-8.759L25.834,18.208z"/>
	<path fill="#FFFFFF" d="M49.489,7.509c5.632,0,9.027,3.8,9.027,9.325c0,5.579-3.907,9.539-9.027,9.539h-6.791v-0.08h1.697V7.59
		h-1.697V7.509H49.489z M46.605,7.59v18.703h2.668c4.5,0,6.792-4.042,6.792-9.297c0-5.094-2.561-9.406-6.818-9.406H46.605z"/>
	<path fill="none" stroke="#FFFFFF" stroke-width="0.25" stroke-miterlimit="10" d="M49.489,7.509c5.632,0,9.027,3.8,9.027,9.325
		c0,5.579-3.907,9.539-9.027,9.539h-6.791v-0.08h1.697V7.59h-1.697V7.509H49.489z M46.605,7.59v18.703h2.668
		c4.5,0,6.792-4.042,6.792-9.297c0-5.094-2.561-9.406-6.818-9.406H46.605z"/>
	<polygon fill="#FFFFFF" points="62.554,7.59 62.554,7.509 68.132,7.509 68.132,7.59 66.461,7.59 66.461,26.293 68.132,26.293 
		68.132,26.373 62.554,26.373 62.554,26.293 64.25,26.293 64.25,7.59 	"/>
	<polygon fill="none" stroke="#FFFFFF" stroke-width="0.25" stroke-miterlimit="10" points="62.554,7.59 62.554,7.509 68.132,7.509 
		68.132,7.59 66.461,7.59 66.461,26.293 68.132,26.293 68.132,26.373 62.554,26.373 62.554,26.293 64.25,26.293 64.25,7.59 	"/>
	<path fill="#FFFFFF" d="M75.81,16.969v9.324h4.339c3.181,0,4.177-1.32,4.743-4.607h0.054v4.688H71.904v-0.08H73.6V7.59h-1.696V7.51
		h12.773v4.688h-0.054C84.057,8.91,83.06,7.59,79.878,7.59H75.81v9.296h2.588c2.452,0,3.369-1.049,3.611-2.909h0.08v5.902h-0.08
		c-0.242-1.86-1.159-2.911-3.611-2.911H75.81z"/>
	<path fill="none" stroke="#FFFFFF" stroke-width="0.25" stroke-miterlimit="10" d="M75.81,16.969v9.324h4.339
		c3.181,0,4.177-1.32,4.743-4.607h0.054v4.688H71.904v-0.08H73.6V7.59h-1.696V7.51h12.773v4.688h-0.054
		C84.057,8.91,83.06,7.59,79.878,7.59H75.81v9.296h2.588c2.452,0,3.369-1.049,3.611-2.909h0.08v5.902h-0.08
		c-0.242-1.86-1.159-2.911-3.611-2.911H75.81z"/>
	<path fill="#FFFFFF" d="M100.463,22.574c0-5.93-10.106-3.665-10.106-10.106c0-3.18,2.318-5.228,5.928-5.228
		c2.319,0,3.126,0.997,4.449,0.997c0.591,0,0.942-0.404,0.942-0.997h0.08v5.632h-0.08c-0.674-3.207-2.048-5.525-5.391-5.525
		c-2.694,0-4.149,1.752-4.149,3.827c0,5.957,10.134,3.666,10.134,10.08c0,3.153-2.642,5.389-5.903,5.389
		c-2.965,0-3.557-1.454-5.257-1.454c-0.619,0-0.942,0.403-0.942,0.97H90.06v-5.632h0.108c0.594,3.476,2.884,6.01,6.199,6.01
		C99.063,26.536,100.463,24.812,100.463,22.574"/>
	<path fill="none" stroke="#FFFFFF" stroke-width="0.25" stroke-miterlimit="10" d="M100.463,22.574
		c0-5.93-10.106-3.665-10.106-10.106c0-3.18,2.318-5.228,5.928-5.228c2.319,0,3.126,0.997,4.449,0.997
		c0.591,0,0.942-0.404,0.942-0.997h0.08v5.632h-0.08c-0.674-3.207-2.048-5.525-5.391-5.525c-2.694,0-4.149,1.752-4.149,3.827
		c0,5.957,10.134,3.666,10.134,10.08c0,3.153-2.642,5.389-5.903,5.389c-2.965,0-3.557-1.454-5.257-1.454
		c-0.619,0-0.942,0.403-0.942,0.97H90.06v-5.632h0.108c0.594,3.476,2.884,6.01,6.199,6.01
		C99.063,26.536,100.463,24.812,100.463,22.574z"/>
	<path fill="#FFFFFF" d="M116.363,15.769c0.763-0.525,1.193-1.288,1.193-1.765c0-0.333-0.19-0.573-0.572-0.573
		c-2.529,0-7.346,5.915-7.346,8.204c0,0.525,0.192,0.858,0.812,0.858c3.1,0,7.487-8.157,8.919-8.157
		c1.478,0,2.433-1.191,2.433-1.191h0.238c0,0-6.297,6.2-6.297,8.441c0,0.573,0.287,0.906,0.906,0.906c2.1,0,5.867-5.15,5.867-5.15
		h0.333c0,0-3.957,5.437-6.246,5.437c-0.811,0-1.385-0.571-1.385-1.621c0-0.812,0.479-2.051,1.098-3.195h-0.095
		c-1.812,2.242-4.006,4.816-5.82,4.816c-1.334,0-1.954-1.001-1.954-2.098c0-3.053,5.389-7.536,8.395-7.536
		c0.666,0,0.906,0.333,0.906,0.81c0,0.573-0.479,1.385-1.241,1.908C116.363,15.959,116.268,15.816,116.363,15.769"/>
	<path fill="none" stroke="#FFFFFF" stroke-width="0.25" stroke-miterlimit="10" d="M116.363,15.769
		c0.763-0.525,1.193-1.288,1.193-1.765c0-0.333-0.19-0.573-0.572-0.573c-2.529,0-7.346,5.915-7.346,8.204
		c0,0.525,0.192,0.858,0.812,0.858c3.1,0,7.487-8.157,8.919-8.157c1.478,0,2.433-1.191,2.433-1.191h0.238c0,0-6.297,6.2-6.297,8.441
		c0,0.573,0.287,0.906,0.906,0.906c2.1,0,5.867-5.15,5.867-5.15h0.333c0,0-3.957,5.437-6.246,5.437
		c-0.811,0-1.385-0.571-1.385-1.621c0-0.812,0.479-2.051,1.098-3.195h-0.095c-1.812,2.242-4.006,4.816-5.82,4.816
		c-1.334,0-1.954-1.001-1.954-2.098c0-3.053,5.389-7.536,8.395-7.536c0.666,0,0.906,0.333,0.906,0.81
		c0,0.573-0.479,1.385-1.241,1.908C116.363,15.959,116.268,15.816,116.363,15.769z"/>
	<path fill="#FFFFFF" d="M113.072,10.427c0-1.716,1.67-3.672,5.01-3.672c2.908,0,6.056,1.669,9.441,3.29
		c0.906-1.24,1.812-2.528,2.72-3.91h0.048c0,0,0.095,0.285,0.906,0.285c1.048,0,2.003-1.144,2.623-1.764
		c0.095-0.096,0.238-0.048,0.189,0c-1.716,1.955-3.48,4.006-5.15,6.009c2.958,1.336,6.105,2.528,9.491,2.528
		c10.063,0,11.446-9.062,6.059-9.062c-5.58,0-7.155,6.726-4.341,6.726c0.095,0,0.095,0.19,0,0.19c-3.291,0-1.812-7.154,4.197-7.154
		c5.962,0,4.436,9.538-5.915,9.538c-3.435,0-6.63-1.191-9.634-2.574c-4.341,5.342-8.013,10.778-8.108,15.356
		c2.433-0.573,4.293-0.953,5.294-0.953c4.15,0,3.672,5.102-1.097,5.102c-2.719,0-4.436-1.478-4.913-3.575
		c-8.441,2.431-22.94,7.392-32.909,7.392c-9.253,0-8.013-7.583-3.291-7.583c0.095,0,0.048,0.144,0,0.144
		c-4.148,0-5.58,6.343,2.622,6.343c9.398,0,24.66-4.483,33.482-6.679c0,0-0.046-0.571-0.046-0.857c0-5.006,3.528-9.538,7.631-15.308
		c-3.388-1.623-6.439-3.244-9.3-3.244c-3.245,0-4.818,1.859-4.818,3.482C113.264,10.618,113.072,10.618,113.072,10.427
		 M120.608,26.595c0.096,2.146,1.621,3.577,4.197,3.577c4.484,0,4.912-4.723,1.097-4.723
		C124.901,25.449,123.041,25.88,120.608,26.595"/>
	<path fill="none" stroke="#FFFFFF" stroke-width="0.25" stroke-miterlimit="10" d="M113.072,10.427c0-1.716,1.67-3.672,5.01-3.672
		c2.908,0,6.056,1.669,9.441,3.29c0.906-1.24,1.812-2.528,2.72-3.91h0.048c0,0,0.095,0.285,0.906,0.285
		c1.048,0,2.003-1.144,2.623-1.764c0.095-0.096,0.238-0.048,0.189,0c-1.716,1.955-3.48,4.006-5.15,6.009
		c2.958,1.336,6.105,2.528,9.491,2.528c10.063,0,11.446-9.062,6.059-9.062c-5.58,0-7.155,6.726-4.341,6.726
		c0.095,0,0.095,0.19,0,0.19c-3.291,0-1.812-7.154,4.197-7.154c5.962,0,4.436,9.538-5.915,9.538c-3.435,0-6.63-1.191-9.634-2.574
		c-4.341,5.342-8.013,10.778-8.108,15.356c2.433-0.573,4.293-0.953,5.294-0.953c4.15,0,3.672,5.102-1.097,5.102
		c-2.719,0-4.436-1.478-4.913-3.575c-8.441,2.431-22.94,7.392-32.909,7.392c-9.253,0-8.013-7.583-3.291-7.583
		c0.095,0,0.048,0.144,0,0.144c-4.148,0-5.58,6.343,2.622,6.343c9.398,0,24.66-4.483,33.482-6.679c0,0-0.046-0.571-0.046-0.857
		c0-5.006,3.528-9.538,7.631-15.308c-3.388-1.623-6.439-3.244-9.3-3.244c-3.245,0-4.818,1.859-4.818,3.482
		C113.264,10.618,113.072,10.618,113.072,10.427z M120.608,26.595c0.096,2.146,1.621,3.577,4.197,3.577
		c4.484,0,4.912-4.723,1.097-4.723C124.901,25.449,123.041,25.88,120.608,26.595z"/>
	<path fill="#FFFFFF" d="M141.947,26.293h4.339c3.181,0,4.178-1.32,4.743-4.607h0.055v4.688H138.04v-0.08h1.698V7.59h-1.698V7.51
		h5.605v0.08h-1.698V26.293z"/>
	<path fill="none" stroke="#FFFFFF" stroke-width="0.25" stroke-miterlimit="10" d="M141.947,26.293h4.339
		c3.181,0,4.178-1.32,4.743-4.607h0.055v4.688H138.04v-0.08h1.698V7.59h-1.698V7.51h5.605v0.08h-1.698V26.293z"/>
	<path fill="#FFFFFF" d="M169.998,19.986c0,3.936-3.02,6.63-6.686,6.63c-3.745,0-6.493-2.749-6.493-6.387V7.59h-1.698V7.509h5.579
		V7.59h-1.672v12.504c0,3.153,2.372,5.228,5.524,5.228c2.992,0,5.337-1.858,5.337-5.362v-9.406c0-2.047-0.702-2.964-2.102-2.964
		h-0.108V7.509h4.581V7.59h-0.106c-1.402,0-2.156,0.917-2.156,2.964V19.986z"/>
	<path fill="none" stroke="#FFFFFF" stroke-width="0.25" stroke-miterlimit="10" d="M169.998,19.986c0,3.936-3.02,6.63-6.686,6.63
		c-3.745,0-6.493-2.749-6.493-6.387V7.59h-1.698V7.509h5.579V7.59h-1.672v12.504c0,3.153,2.372,5.228,5.524,5.228
		c2.992,0,5.337-1.858,5.337-5.362v-9.406c0-2.047-0.702-2.964-2.102-2.964h-0.108V7.509h4.581V7.59h-0.106
		c-1.402,0-2.156,0.917-2.156,2.964V19.986z"/>
	<path fill="#FFFFFF" d="M177.698,7.779v15.146c0,2.397,0.889,3.368,1.833,3.368h0.134v0.08h-3.772v-0.08
		c0.97,0,1.697-0.971,1.697-3.368V7.591h-1.697V7.51h4.15l10.428,17.867V10.96c0-2.399-0.888-3.369-1.832-3.369h-0.135V7.51h3.774
		v0.081c-0.971,0-1.698,0.97-1.698,3.369v15.413h-1.888L177.698,7.779z"/>
	<path fill="none" stroke="#FFFFFF" stroke-width="0.25" stroke-miterlimit="10" d="M177.698,7.779v15.146
		c0,2.397,0.889,3.368,1.833,3.368h0.134v0.08h-3.772v-0.08c0.97,0,1.697-0.971,1.697-3.368V7.591h-1.697V7.51h4.15l10.428,17.867
		V10.96c0-2.399-0.888-3.369-1.832-3.369h-0.135V7.51h3.774v0.081c-0.971,0-1.698,0.97-1.698,3.369v15.413h-1.888L177.698,7.779z"/>
	<path fill="#FFFFFF" d="M205.181,26.158c2.479,0,4.474-1.509,4.797-4.284h0.108c-0.297,2.775-2.345,4.769-6.037,4.769
		c-4.688,0-7.869-4.283-7.869-9.592c0-5.581,3.529-9.811,8.436-9.811c2.316,0,2.964,0.997,4.284,0.997
		c0.594,0,0.943-0.404,0.943-0.997h0.081v5.632h-0.081c-0.674-3.207-1.887-5.525-5.228-5.525c-4.312,0-5.983,4.285-5.983,9.54
		C198.632,22.196,201.22,26.158,205.181,26.158"/>
	<path fill="none" stroke="#FFFFFF" stroke-width="0.25" stroke-miterlimit="10" d="M205.181,26.158
		c2.479,0,4.474-1.509,4.797-4.284h0.108c-0.297,2.775-2.345,4.769-6.037,4.769c-4.688,0-7.869-4.283-7.869-9.592
		c0-5.581,3.529-9.811,8.436-9.811c2.316,0,2.964,0.997,4.284,0.997c0.594,0,0.943-0.404,0.943-0.997h0.081v5.632h-0.081
		c-0.674-3.207-1.887-5.525-5.228-5.525c-4.312,0-5.983,4.285-5.983,9.54C198.632,22.196,201.22,26.158,205.181,26.158z"/>
	<polygon fill="#FFFFFF" points="225.684,7.59 225.684,7.509 231.263,7.509 231.263,7.59 229.591,7.59 229.591,26.293 
		231.263,26.293 231.263,26.373 225.684,26.373 225.684,26.293 227.382,26.293 227.382,17.051 218.164,17.051 218.164,26.293 
		219.835,26.293 219.835,26.373 214.258,26.373 214.258,26.293 215.955,26.293 215.955,7.59 214.258,7.59 214.258,7.509 
		219.835,7.509 219.835,7.59 218.164,7.59 218.164,16.969 227.382,16.969 227.382,7.59 	"/>
	<polygon fill="none" stroke="#FFFFFF" stroke-width="0.25" stroke-miterlimit="10" points="225.684,7.59 225.684,7.509 
		231.263,7.509 231.263,7.59 229.591,7.59 229.591,26.293 231.263,26.293 231.263,26.373 225.684,26.373 225.684,26.293 
		227.382,26.293 227.382,17.051 218.164,17.051 218.164,26.293 219.835,26.293 219.835,26.373 214.258,26.373 214.258,26.293 
		215.955,26.293 215.955,7.59 214.258,7.59 214.258,7.509 219.835,7.509 219.835,7.59 218.164,7.59 218.164,16.969 227.382,16.969 
		227.382,7.59 	"/>
</g>
</svg>
