<?xml version="1.0" encoding="utf-8"?>
<!-- Generator: Adobe Illustrator 14.0.0, SVG Export Plug-In . SVG Version: 6.00 Build 43363)  -->
<!DOCTYPE svg PUBLIC "-//W3C//DTD SVG 1.1//EN" "http://www.w3.org/Graphics/SVG/1.1/DTD/svg11.dtd">
<svg version="1.1" id="Layer_1" xmlns="http://www.w3.org/2000/svg" xmlns:xlink="http://www.w3.org/1999/xlink" x="0px" y="0px"
	 width="612px" height="792px" viewBox="0 0 612 792" enable-background="new 0 0 612 792" xml:space="preserve">
<g>
	<path d="M197.645,407.293h4.34c3.181,0,4.178-1.32,4.743-4.607h0.054v4.688h-13.044v-0.08h1.698V388.59h-1.698v-0.08h5.605v0.08
		h-1.698V407.293z"/>
	<path fill="none" stroke="#000000" stroke-width="0.25" stroke-miterlimit="10" d="M197.645,407.293h4.34
		c3.181,0,4.178-1.32,4.743-4.607h0.054v4.688h-13.044v-0.08h1.698V388.59h-1.698v-0.08h5.605v0.08h-1.698V407.293z"/>
	<path d="M214.861,407.293v0.08h-4.582v-0.08h0.109c1.266,0,1.913-1.401,2.478-2.964l5.768-15.819h0.997l7.33,18.783h1.511v0.08
		h-5.66v-0.08h1.779l-3.127-8.003h-6.656l-1.833,5.065c-0.594,1.591-0.215,2.938,1.698,2.938H214.861z M214.834,399.208h6.603
		l-3.396-8.759L214.834,399.208z"/>
	<path fill="none" stroke="#000000" stroke-width="0.25" stroke-miterlimit="10" d="M214.861,407.293v0.08h-4.582v-0.08h0.109
		c1.266,0,1.913-1.401,2.478-2.964l5.768-15.819h0.997l7.33,18.783h1.511v0.08h-5.66v-0.08h1.779l-3.127-8.003h-6.656l-1.833,5.065
		c-0.594,1.591-0.215,2.938,1.698,2.938H214.861z M214.834,399.208h6.603l-3.396-8.759L214.834,399.208z"/>
	<path d="M238.489,388.509c5.632,0,9.027,3.8,9.027,9.325c0,5.579-3.907,9.539-9.027,9.539h-6.791v-0.08h1.697V388.59h-1.697v-0.081
		H238.489z M235.605,388.59v18.703h2.668c4.5,0,6.792-4.042,6.792-9.297c0-5.094-2.561-9.406-6.818-9.406H235.605z"/>
	<path fill="none" stroke="#000000" stroke-width="0.25" stroke-miterlimit="10" d="M238.489,388.509c5.632,0,9.027,3.8,9.027,9.325
		c0,5.579-3.907,9.539-9.027,9.539h-6.791v-0.08h1.697V388.59h-1.697v-0.081H238.489z M235.605,388.59v18.703h2.668
		c4.5,0,6.792-4.042,6.792-9.297c0-5.094-2.561-9.406-6.818-9.406H235.605z"/>
	<polygon points="251.554,388.59 251.554,388.509 257.132,388.509 257.132,388.59 255.461,388.59 255.461,407.293 257.132,407.293 
		257.132,407.373 251.554,407.373 251.554,407.293 253.25,407.293 253.25,388.59 	"/>
	<polygon fill="none" stroke="#000000" stroke-width="0.25" stroke-miterlimit="10" points="251.554,388.59 251.554,388.509 
		257.132,388.509 257.132,388.59 255.461,388.59 255.461,407.293 257.132,407.293 257.132,407.373 251.554,407.373 251.554,407.293 
		253.25,407.293 253.25,388.59 	"/>
	<path d="M264.81,397.969v9.324h4.339c3.181,0,4.177-1.32,4.743-4.607h0.054v4.688h-13.042v-0.08h1.696V388.59h-1.696v-0.08h12.773
		v4.688h-0.054c-0.566-3.288-1.563-4.608-4.744-4.608h-4.069v9.296h2.588c2.452,0,3.369-1.049,3.611-2.909h0.08v5.902h-0.08
		c-0.242-1.86-1.159-2.911-3.611-2.911H264.81z"/>
	<path fill="none" stroke="#000000" stroke-width="0.25" stroke-miterlimit="10" d="M264.81,397.969v9.324h4.339
		c3.181,0,4.177-1.32,4.743-4.607h0.054v4.688h-13.042v-0.08h1.696V388.59h-1.696v-0.08h12.773v4.688h-0.054
		c-0.566-3.288-1.563-4.608-4.744-4.608h-4.069v9.296h2.588c2.452,0,3.369-1.049,3.611-2.909h0.08v5.902h-0.08
		c-0.242-1.86-1.159-2.911-3.611-2.911H264.81z"/>
	<path d="M289.463,403.574c0-5.93-10.106-3.665-10.106-10.106c0-3.18,2.318-5.228,5.928-5.228c2.319,0,3.126,0.997,4.449,0.997
		c0.591,0,0.942-0.404,0.942-0.997h0.08v5.632h-0.08c-0.674-3.207-2.048-5.525-5.391-5.525c-2.694,0-4.149,1.752-4.149,3.827
		c0,5.957,10.134,3.666,10.134,10.08c0,3.153-2.642,5.389-5.903,5.389c-2.965,0-3.557-1.454-5.257-1.454
		c-0.619,0-0.942,0.403-0.942,0.97h-0.108v-5.632h0.108c0.594,3.476,2.884,6.01,6.199,6.01
		C288.063,407.536,289.463,405.812,289.463,403.574"/>
	<path fill="none" stroke="#000000" stroke-width="0.25" stroke-miterlimit="10" d="M289.463,403.574
		c0-5.93-10.106-3.665-10.106-10.106c0-3.18,2.318-5.228,5.928-5.228c2.319,0,3.126,0.997,4.449,0.997
		c0.591,0,0.942-0.404,0.942-0.997h0.08v5.632h-0.08c-0.674-3.207-2.048-5.525-5.391-5.525c-2.694,0-4.149,1.752-4.149,3.827
		c0,5.957,10.134,3.666,10.134,10.08c0,3.153-2.642,5.389-5.903,5.389c-2.965,0-3.557-1.454-5.257-1.454
		c-0.619,0-0.942,0.403-0.942,0.97h-0.108v-5.632h0.108c0.594,3.476,2.884,6.01,6.199,6.01
		C288.063,407.536,289.463,405.812,289.463,403.574z"/>
	<path d="M305.363,396.769c0.763-0.525,1.193-1.288,1.193-1.765c0-0.333-0.19-0.573-0.572-0.573c-2.529,0-7.346,5.915-7.346,8.204
		c0,0.525,0.192,0.858,0.812,0.858c3.1,0,7.487-8.157,8.919-8.157c1.478,0,2.433-1.191,2.433-1.191h0.238c0,0-6.297,6.2-6.297,8.441
		c0,0.573,0.287,0.906,0.906,0.906c2.1,0,5.867-5.15,5.867-5.15h0.333c0,0-3.957,5.437-6.246,5.437
		c-0.811,0-1.385-0.571-1.385-1.621c0-0.812,0.479-2.051,1.098-3.195h-0.095c-1.812,2.242-4.006,4.816-5.82,4.816
		c-1.334,0-1.954-1.001-1.954-2.098c0-3.053,5.389-7.536,8.395-7.536c0.666,0,0.906,0.333,0.906,0.81
		c0,0.573-0.479,1.385-1.241,1.908C305.363,396.959,305.268,396.816,305.363,396.769"/>
	<path fill="none" stroke="#000000" stroke-width="0.25" stroke-miterlimit="10" d="M305.363,396.769
		c0.763-0.525,1.193-1.288,1.193-1.765c0-0.333-0.19-0.573-0.572-0.573c-2.529,0-7.346,5.915-7.346,8.204
		c0,0.525,0.192,0.858,0.812,0.858c3.1,0,7.487-8.157,8.919-8.157c1.478,0,2.433-1.191,2.433-1.191h0.238c0,0-6.297,6.2-6.297,8.441
		c0,0.573,0.287,0.906,0.906,0.906c2.1,0,5.867-5.15,5.867-5.15h0.333c0,0-3.957,5.437-6.246,5.437
		c-0.811,0-1.385-0.571-1.385-1.621c0-0.812,0.479-2.051,1.098-3.195h-0.095c-1.812,2.242-4.006,4.816-5.82,4.816
		c-1.334,0-1.954-1.001-1.954-2.098c0-3.053,5.389-7.536,8.395-7.536c0.666,0,0.906,0.333,0.906,0.81
		c0,0.573-0.479,1.385-1.241,1.908C305.363,396.959,305.268,396.816,305.363,396.769z"/>
	<path d="M302.072,391.427c0-1.716,1.67-3.672,5.01-3.672c2.908,0,6.056,1.669,9.441,3.29c0.906-1.24,1.812-2.528,2.72-3.91h0.048
		c0,0,0.095,0.285,0.906,0.285c1.048,0,2.003-1.144,2.623-1.764c0.095-0.096,0.238-0.048,0.189,0
		c-1.716,1.955-3.48,4.006-5.15,6.009c2.958,1.336,6.105,2.528,9.491,2.528c10.063,0,11.446-9.062,6.059-9.062
		c-5.58,0-7.155,6.726-4.341,6.726c0.095,0,0.095,0.19,0,0.19c-3.291,0-1.812-7.154,4.197-7.154c5.962,0,4.436,9.538-5.915,9.538
		c-3.435,0-6.63-1.191-9.634-2.574c-4.341,5.342-8.013,10.778-8.108,15.356c2.433-0.573,4.293-0.953,5.294-0.953
		c4.15,0,3.672,5.102-1.097,5.102c-2.719,0-4.436-1.478-4.913-3.575c-8.441,2.431-22.94,7.392-32.909,7.392
		c-9.253,0-8.013-7.583-3.291-7.583c0.095,0,0.048,0.144,0,0.144c-4.148,0-5.58,6.343,2.622,6.343c9.398,0,24.66-4.483,33.482-6.679
		c0,0-0.046-0.571-0.046-0.857c0-5.006,3.528-9.538,7.631-15.308c-3.388-1.623-6.439-3.244-9.3-3.244
		c-3.245,0-4.818,1.859-4.818,3.482C302.264,391.618,302.072,391.618,302.072,391.427 M309.608,407.595
		c0.096,2.146,1.621,3.577,4.197,3.577c4.484,0,4.912-4.723,1.097-4.723C313.901,406.449,312.041,406.88,309.608,407.595"/>
	<path fill="none" stroke="#000000" stroke-width="0.25" stroke-miterlimit="10" d="M302.072,391.427c0-1.716,1.67-3.672,5.01-3.672
		c2.908,0,6.056,1.669,9.441,3.29c0.906-1.24,1.812-2.528,2.72-3.91h0.048c0,0,0.095,0.285,0.906,0.285
		c1.048,0,2.003-1.144,2.623-1.764c0.095-0.096,0.238-0.048,0.189,0c-1.716,1.955-3.48,4.006-5.15,6.009
		c2.958,1.336,6.105,2.528,9.491,2.528c10.063,0,11.446-9.062,6.059-9.062c-5.58,0-7.155,6.726-4.341,6.726
		c0.095,0,0.095,0.19,0,0.19c-3.291,0-1.812-7.154,4.197-7.154c5.962,0,4.436,9.538-5.915,9.538c-3.435,0-6.63-1.191-9.634-2.574
		c-4.341,5.342-8.013,10.778-8.108,15.356c2.433-0.573,4.293-0.953,5.294-0.953c4.15,0,3.672,5.102-1.097,5.102
		c-2.719,0-4.436-1.478-4.913-3.575c-8.441,2.431-22.94,7.392-32.909,7.392c-9.253,0-8.013-7.583-3.291-7.583
		c0.095,0,0.048,0.144,0,0.144c-4.148,0-5.58,6.343,2.622,6.343c9.398,0,24.66-4.483,33.482-6.679c0,0-0.046-0.571-0.046-0.857
		c0-5.006,3.528-9.538,7.631-15.308c-3.388-1.623-6.439-3.244-9.3-3.244c-3.245,0-4.818,1.859-4.818,3.482
		C302.264,391.618,302.072,391.618,302.072,391.427z M309.608,407.595c0.096,2.146,1.621,3.577,4.197,3.577
		c4.484,0,4.912-4.723,1.097-4.723C313.901,406.449,312.041,406.88,309.608,407.595z"/>
	<path d="M330.947,407.293h4.339c3.181,0,4.178-1.32,4.743-4.607h0.055v4.688H327.04v-0.08h1.698V388.59h-1.698v-0.08h5.605v0.08
		h-1.698V407.293z"/>
	<path fill="none" stroke="#000000" stroke-width="0.25" stroke-miterlimit="10" d="M330.947,407.293h4.339
		c3.181,0,4.178-1.32,4.743-4.607h0.055v4.688H327.04v-0.08h1.698V388.59h-1.698v-0.08h5.605v0.08h-1.698V407.293z"/>
	<path d="M358.998,400.986c0,3.936-3.02,6.63-6.686,6.63c-3.745,0-6.493-2.749-6.493-6.387V388.59h-1.698v-0.081h5.579v0.081h-1.672
		v12.504c0,3.153,2.372,5.228,5.524,5.228c2.992,0,5.337-1.858,5.337-5.362v-9.406c0-2.047-0.702-2.964-2.102-2.964h-0.108v-0.081
		h4.581v0.081h-0.106c-1.402,0-2.156,0.917-2.156,2.964V400.986z"/>
	<path fill="none" stroke="#000000" stroke-width="0.25" stroke-miterlimit="10" d="M358.998,400.986c0,3.936-3.02,6.63-6.686,6.63
		c-3.745,0-6.493-2.749-6.493-6.387V388.59h-1.698v-0.081h5.579v0.081h-1.672v12.504c0,3.153,2.372,5.228,5.524,5.228
		c2.992,0,5.337-1.858,5.337-5.362v-9.406c0-2.047-0.702-2.964-2.102-2.964h-0.108v-0.081h4.581v0.081h-0.106
		c-1.402,0-2.156,0.917-2.156,2.964V400.986z"/>
	<path d="M366.698,388.779v15.146c0,2.397,0.889,3.368,1.833,3.368h0.134v0.08h-3.772v-0.08c0.97,0,1.697-0.971,1.697-3.368v-15.334
		h-1.697v-0.081h4.15l10.428,17.867V391.96c0-2.399-0.888-3.369-1.832-3.369h-0.135v-0.081h3.774v0.081
		c-0.971,0-1.698,0.97-1.698,3.369v15.413h-1.888L366.698,388.779z"/>
	<path fill="none" stroke="#000000" stroke-width="0.25" stroke-miterlimit="10" d="M366.698,388.779v15.146
		c0,2.397,0.889,3.368,1.833,3.368h0.134v0.08h-3.772v-0.08c0.97,0,1.697-0.971,1.697-3.368v-15.334h-1.697v-0.081h4.15
		l10.428,17.867V391.96c0-2.399-0.888-3.369-1.832-3.369h-0.135v-0.081h3.774v0.081c-0.971,0-1.698,0.97-1.698,3.369v15.413h-1.888
		L366.698,388.779z"/>
	<path d="M394.181,407.158c2.479,0,4.474-1.509,4.797-4.284h0.108c-0.297,2.775-2.345,4.769-6.037,4.769
		c-4.688,0-7.869-4.283-7.869-9.592c0-5.581,3.529-9.811,8.436-9.811c2.316,0,2.964,0.997,4.284,0.997
		c0.594,0,0.943-0.404,0.943-0.997h0.081v5.632h-0.081c-0.674-3.207-1.887-5.525-5.228-5.525c-4.312,0-5.983,4.285-5.983,9.54
		C387.632,403.196,390.22,407.158,394.181,407.158"/>
	<path fill="none" stroke="#000000" stroke-width="0.25" stroke-miterlimit="10" d="M394.181,407.158
		c2.479,0,4.474-1.509,4.797-4.284h0.108c-0.297,2.775-2.345,4.769-6.037,4.769c-4.688,0-7.869-4.283-7.869-9.592
		c0-5.581,3.529-9.811,8.436-9.811c2.316,0,2.964,0.997,4.284,0.997c0.594,0,0.943-0.404,0.943-0.997h0.081v5.632h-0.081
		c-0.674-3.207-1.887-5.525-5.228-5.525c-4.312,0-5.983,4.285-5.983,9.54C387.632,403.196,390.22,407.158,394.181,407.158z"/>
	<polygon points="414.684,388.59 414.684,388.509 420.263,388.509 420.263,388.59 418.591,388.59 418.591,407.293 420.263,407.293 
		420.263,407.373 414.684,407.373 414.684,407.293 416.382,407.293 416.382,398.051 407.164,398.051 407.164,407.293 
		408.835,407.293 408.835,407.373 403.258,407.373 403.258,407.293 404.955,407.293 404.955,388.59 403.258,388.59 403.258,388.509 
		408.835,388.509 408.835,388.59 407.164,388.59 407.164,397.969 416.382,397.969 416.382,388.59 	"/>
	<polygon fill="none" stroke="#000000" stroke-width="0.25" stroke-miterlimit="10" points="414.684,388.59 414.684,388.509 
		420.263,388.509 420.263,388.59 418.591,388.59 418.591,407.293 420.263,407.293 420.263,407.373 414.684,407.373 414.684,407.293 
		416.382,407.293 416.382,398.051 407.164,398.051 407.164,407.293 408.835,407.293 408.835,407.373 403.258,407.373 
		403.258,407.293 404.955,407.293 404.955,388.59 403.258,388.59 403.258,388.509 408.835,388.509 408.835,388.59 407.164,388.59 
		407.164,397.969 416.382,397.969 416.382,388.59 	"/>
</g>
</svg>
