<?xml version="1.0" encoding="utf-8"?>
<!-- Generator: Adobe Illustrator 14.0.0, SVG Export Plug-In . SVG Version: 6.00 Build 43363)  -->
<!DOCTYPE svg PUBLIC "-//W3C//DTD SVG 1.1//EN" "http://www.w3.org/Graphics/SVG/1.1/DTD/svg11.dtd">
<svg version="1.1" id="Layer_1" xmlns="http://www.w3.org/2000/svg" xmlns:xlink="http://www.w3.org/1999/xlink" x="0px" y="0px"
	 width="612px" height="792px" viewBox="0 0 612 792" enable-background="new 0 0 612 792" xml:space="preserve">
<g>
	<path fill="#D9C9DD" d="M226.176,401.061v2.766h1.287c0.944,0,1.239-0.392,1.407-1.367h0.017v1.392h-3.87v-0.024h0.504v-5.549
		h-0.504v-0.023h3.79v1.391h-0.016c-0.168-0.976-0.464-1.367-1.407-1.367h-1.208v2.759h0.768c0.727,0,1-0.312,1.071-0.863h0.024
		v1.751h-0.024c-0.071-0.552-0.344-0.863-1.071-0.863H226.176z"/>
	<path stroke="#000000" stroke-width="0.25" stroke-miterlimit="10" d="M226.176,401.061v2.766h1.287
		c0.944,0,1.239-0.392,1.407-1.367h0.017v1.392h-3.87v-0.024h0.504v-5.549h-0.504v-0.023h3.79v1.391h-0.016
		c-0.168-0.976-0.464-1.367-1.407-1.367h-1.208v2.759h0.768c0.727,0,1-0.312,1.071-0.863h0.024v1.751h-0.024
		c-0.071-0.552-0.344-0.863-1.071-0.863H226.176z"/>
	<path fill="#D9C9DD" d="M236.358,398.254v0.023h-0.496v5.549h0.496v0.024h-1.64v-0.024h0.504v-5.469l-1.735,5.493h-0.272
		l-1.951-5.485v4.462c0,0.712,0.264,0.999,0.544,0.999h0.04v0.024h-1.119v-0.024c0.272,0,0.503-0.287,0.503-0.999v-4.55h-0.503
		v-0.023h1.183l1.743,4.973l1.567-4.973H236.358z"/>
	<path stroke="#000000" stroke-width="0.25" stroke-miterlimit="10" d="M236.358,398.254v0.023h-0.496v5.549h0.496v0.024h-1.64
		v-0.024h0.504v-5.469l-1.735,5.493h-0.272l-1.951-5.485v4.462c0,0.712,0.264,0.999,0.544,0.999h0.04v0.024h-1.119v-0.024
		c0.272,0,0.503-0.287,0.503-0.999v-4.55h-0.503v-0.023h1.183l1.743,4.973l1.567-4.973H236.358z"/>
	<path fill="#D9C9DD" d="M237.881,398.277v-0.023h2.295c1.167,0,1.886,0.591,1.886,1.431c0,0.848-0.871,1.495-1.999,1.495h-1.023
		v2.646h0.496v0.024h-1.655v-0.024h0.504v-5.549H237.881z M239.04,401.156h0.928c0.991,0,1.399-0.647,1.399-1.447
		c0-0.775-0.424-1.432-1.367-1.432h-0.96V401.156z"/>
	<path stroke="#000000" stroke-width="0.25" stroke-miterlimit="10" d="M237.881,398.277v-0.023h2.295
		c1.167,0,1.886,0.591,1.886,1.431c0,0.848-0.871,1.495-1.999,1.495h-1.023v2.646h0.496v0.024h-1.655v-0.024h0.504v-5.549H237.881z
		 M239.04,401.156h0.928c0.991,0,1.399-0.647,1.399-1.447c0-0.775-0.424-1.432-1.367-1.432h-0.96V401.156z"/>
	<path fill="#D9C9DD" d="M248.895,401.021c0,1.654-1.056,2.918-2.576,2.918c-1.671,0-2.574-1.215-2.574-2.854
		c0-1.655,1.056-2.91,2.574-2.91C247.99,398.174,248.895,399.382,248.895,401.021 M248.167,401.068c0-1.512-0.584-2.862-1.848-2.862
		c-1.335,0-1.846,1.271-1.846,2.83c0,1.512,0.584,2.87,1.846,2.87C247.655,403.906,248.167,402.627,248.167,401.068"/>
	<path stroke="#000000" stroke-width="0.25" stroke-miterlimit="10" d="M248.895,401.021c0,1.654-1.056,2.918-2.576,2.918
		c-1.671,0-2.574-1.215-2.574-2.854c0-1.655,1.056-2.91,2.574-2.91C247.99,398.174,248.895,399.382,248.895,401.021z
		 M248.167,401.068c0-1.512-0.584-2.862-1.848-2.862c-1.335,0-1.846,1.271-1.846,2.83c0,1.512,0.584,2.87,1.846,2.87
		C247.655,403.906,248.167,402.627,248.167,401.068z"/>
	<path fill="#D9C9DD" d="M256.053,398.277v-0.023h1.359v0.023h-0.032c-0.375,0-0.615,0.4-0.751,0.88l-1.311,4.693h-0.296
		l-1.295-4.397l-1.32,4.397h-0.295l-1.608-5.573h-0.447v-0.023h1.663v0.023h-0.528l1.383,4.894l1.135-3.782l-0.327-1.111h-0.448
		v-0.023h1.623v0.023h-0.527l1.439,4.909l1.127-4.037c0.136-0.48,0.08-0.872-0.487-0.872H256.053z"/>
	<path stroke="#000000" stroke-width="0.25" stroke-miterlimit="10" d="M256.053,398.277v-0.023h1.359v0.023h-0.032
		c-0.375,0-0.615,0.4-0.751,0.88l-1.311,4.693h-0.296l-1.295-4.397l-1.32,4.397h-0.295l-1.608-5.573h-0.447v-0.023h1.663v0.023
		h-0.528l1.383,4.894l1.135-3.782l-0.327-1.111h-0.448v-0.023h1.623v0.023h-0.527l1.439,4.909l1.127-4.037
		c0.136-0.48,0.08-0.872-0.487-0.872H256.053z"/>
	<path fill="#D9C9DD" d="M259.977,401.061v2.766h1.287c0.943,0,1.239-0.392,1.407-1.367h0.016v1.392h-3.869v-0.024h0.503v-5.549
		h-0.503v-0.023h3.789v1.391h-0.016c-0.168-0.976-0.464-1.367-1.407-1.367h-1.207v2.759h0.768c0.727,0,0.999-0.312,1.071-0.863
		h0.023v1.751h-0.023c-0.072-0.552-0.344-0.863-1.071-0.863H259.977z"/>
	<path stroke="#000000" stroke-width="0.25" stroke-miterlimit="10" d="M259.977,401.061v2.766h1.287
		c0.943,0,1.239-0.392,1.407-1.367h0.016v1.392h-3.869v-0.024h0.503v-5.549h-0.503v-0.023h3.789v1.391h-0.016
		c-0.168-0.976-0.464-1.367-1.407-1.367h-1.207v2.759h0.768c0.727,0,0.999-0.312,1.071-0.863h0.023v1.751h-0.023
		c-0.072-0.552-0.344-0.863-1.071-0.863H259.977z"/>
	<path fill="#D9C9DD" d="M268.774,403.603c0.176,0,0.288-0.176,0.288-0.399v-0.168h0.023v0.168c0,0.344-0.159,0.728-0.607,0.728
		c-0.527,0-0.632-0.432-0.632-1.048c0-1.063-0.199-1.751-1.222-1.751h-0.936v2.694h0.495v0.024h-1.654v-0.024h0.503v-5.549h-0.503
		v-0.022h2.294c1.168,0,1.887,0.566,1.887,1.406c0,0.775-0.727,1.359-1.703,1.455c1.015,0.08,1.463,0.743,1.463,1.767
		C268.471,403.363,268.535,403.603,268.774,403.603 M265.688,401.108h0.927c0.992,0,1.399-0.624,1.399-1.424
		c0-0.775-0.424-1.407-1.367-1.407h-0.959V401.108z"/>
	<path stroke="#000000" stroke-width="0.25" stroke-miterlimit="10" d="M268.774,403.603c0.176,0,0.288-0.176,0.288-0.399v-0.168
		h0.023v0.168c0,0.344-0.159,0.728-0.607,0.728c-0.527,0-0.632-0.432-0.632-1.048c0-1.063-0.199-1.751-1.222-1.751h-0.936v2.694
		h0.495v0.024h-1.654v-0.024h0.503v-5.549h-0.503v-0.022h2.294c1.168,0,1.887,0.566,1.887,1.406c0,0.775-0.727,1.359-1.703,1.455
		c1.015,0.08,1.463,0.743,1.463,1.767C268.471,403.363,268.535,403.603,268.774,403.603z M265.688,401.108h0.927
		c0.992,0,1.399-0.624,1.399-1.424c0-0.775-0.424-1.407-1.367-1.407h-0.959V401.108z"/>
	<path fill="#D9C9DD" d="M274.487,402.235c-0.359,0-0.615-0.271-0.615-0.64c0-0.383,0.279-0.672,0.615-0.672
		c0.368,0,0.624,0.272,0.624,0.656C275.111,401.947,274.831,402.235,274.487,402.235"/>
	<path stroke="#000000" stroke-width="0.25" stroke-miterlimit="10" d="M274.487,402.235c-0.359,0-0.615-0.271-0.615-0.64
		c0-0.383,0.279-0.672,0.615-0.672c0.368,0,0.624,0.272,0.624,0.656C275.111,401.947,274.831,402.235,274.487,402.235z"/>
	<polygon fill="#D9C9DD" points="279.944,398.277 279.944,398.254 281.599,398.254 281.599,398.277 281.104,398.277 
		281.104,403.826 281.599,403.826 281.599,403.851 279.944,403.851 279.944,403.826 280.448,403.826 280.448,398.277 	"/>
	<polygon stroke="#000000" stroke-width="0.25" stroke-miterlimit="10" points="279.944,398.277 279.944,398.254 281.599,398.254 
		281.599,398.277 281.104,398.277 281.104,403.826 281.599,403.826 281.599,403.851 279.944,403.851 279.944,403.826 
		280.448,403.826 280.448,398.277 	"/>
	<path fill="#D9C9DD" d="M283.657,398.334v4.493c0,0.712,0.264,0.999,0.543,0.999h0.04v0.024h-1.119v-0.024
		c0.288,0,0.504-0.287,0.504-0.999v-4.55h-0.504v-0.023h1.231l3.094,5.301v-4.277c0-0.712-0.264-1-0.543-1h-0.04v-0.023h1.119v0.023
		c-0.288,0-0.504,0.288-0.504,1v4.573h-0.559L283.657,398.334z"/>
	<path stroke="#000000" stroke-width="0.25" stroke-miterlimit="10" d="M283.657,398.334v4.493c0,0.712,0.264,0.999,0.543,0.999
		h0.04v0.024h-1.119v-0.024c0.288,0,0.504-0.287,0.504-0.999v-4.55h-0.504v-0.023h1.231l3.094,5.301v-4.277c0-0.712-0.264-1-0.543-1
		h-0.04v-0.023h1.119v0.023c-0.288,0-0.504,0.288-0.504,1v4.573h-0.559L283.657,398.334z"/>
	<path fill="#D9C9DD" d="M292.631,402.724c0-1.76-2.999-1.088-2.999-2.999c0-0.943,0.688-1.551,1.76-1.551
		c0.687,0,0.927,0.296,1.319,0.296c0.176,0,0.279-0.12,0.279-0.296h0.025v1.671h-0.025c-0.199-0.951-0.607-1.639-1.598-1.639
		c-0.8,0-1.232,0.52-1.232,1.135c0,1.768,3.006,1.088,3.006,2.99c0,0.936-0.783,1.6-1.751,1.6c-0.879,0-1.055-0.432-1.558-0.432
		c-0.185,0-0.281,0.12-0.281,0.286h-0.032v-1.67h0.032c0.176,1.032,0.856,1.783,1.839,1.783
		C292.215,403.898,292.631,403.387,292.631,402.724"/>
	<path stroke="#000000" stroke-width="0.25" stroke-miterlimit="10" d="M292.631,402.724c0-1.76-2.999-1.088-2.999-2.999
		c0-0.943,0.688-1.551,1.76-1.551c0.687,0,0.927,0.296,1.319,0.296c0.176,0,0.279-0.12,0.279-0.296h0.025v1.671h-0.025
		c-0.199-0.951-0.607-1.639-1.598-1.639c-0.8,0-1.232,0.52-1.232,1.135c0,1.768,3.006,1.088,3.006,2.99c0,0.936-0.783,1.6-1.751,1.6
		c-0.879,0-1.055-0.432-1.558-0.432c-0.185,0-0.281,0.12-0.281,0.286h-0.032v-1.67h0.032c0.176,1.032,0.856,1.783,1.839,1.783
		C292.215,403.898,292.631,403.387,292.631,402.724z"/>
	<path fill="#D9C9DD" d="M294.77,398.277v-0.023h2.294c1.168,0,1.887,0.591,1.887,1.431c0,0.848-0.872,1.495-1.999,1.495h-1.023
		v2.646h0.495v0.024h-1.654v-0.024h0.503v-5.549H294.77z M295.929,401.156h0.927c0.992,0,1.399-0.647,1.399-1.447
		c0-0.775-0.424-1.432-1.367-1.432h-0.959V401.156z"/>
	<path stroke="#000000" stroke-width="0.25" stroke-miterlimit="10" d="M294.77,398.277v-0.023h2.294
		c1.168,0,1.887,0.591,1.887,1.431c0,0.848-0.872,1.495-1.999,1.495h-1.023v2.646h0.495v0.024h-1.654v-0.024h0.503v-5.549H294.77z
		 M295.929,401.156h0.927c0.992,0,1.399-0.647,1.399-1.447c0-0.775-0.424-1.432-1.367-1.432h-0.959V401.156z"/>
	<polygon fill="#D9C9DD" points="300.474,398.277 300.474,398.254 302.128,398.254 302.128,398.277 301.633,398.277 
		301.633,403.826 302.128,403.826 302.128,403.851 300.474,403.851 300.474,403.826 300.977,403.826 300.977,398.277 	"/>
	<polygon stroke="#000000" stroke-width="0.25" stroke-miterlimit="10" points="300.474,398.277 300.474,398.254 302.128,398.254 
		302.128,398.277 301.633,398.277 301.633,403.826 302.128,403.826 302.128,403.851 300.474,403.851 300.474,403.826 
		300.977,403.826 300.977,398.277 	"/>
	<path fill="#D9C9DD" d="M307.895,403.603c0.176,0,0.287-0.176,0.287-0.399v-0.168h0.024v0.168c0,0.344-0.16,0.728-0.607,0.728
		c-0.528,0-0.632-0.432-0.632-1.048c0-1.063-0.2-1.751-1.224-1.751h-0.936v2.694h0.496v0.024h-1.655v-0.024h0.504v-5.549h-0.504
		v-0.022h2.295c1.167,0,1.887,0.566,1.887,1.406c0,0.775-0.728,1.359-1.703,1.455c1.016,0.08,1.463,0.743,1.463,1.767
		C307.59,403.363,307.654,403.603,307.895,403.603 M304.808,401.108h0.928c0.991,0,1.399-0.624,1.399-1.424
		c0-0.775-0.424-1.407-1.367-1.407h-0.96V401.108z"/>
	<path stroke="#000000" stroke-width="0.25" stroke-miterlimit="10" d="M307.895,403.603c0.176,0,0.287-0.176,0.287-0.399v-0.168
		h0.024v0.168c0,0.344-0.16,0.728-0.607,0.728c-0.528,0-0.632-0.432-0.632-1.048c0-1.063-0.2-1.751-1.224-1.751h-0.936v2.694h0.496
		v0.024h-1.655v-0.024h0.504v-5.549h-0.504v-0.022h2.295c1.167,0,1.887,0.566,1.887,1.406c0,0.775-0.728,1.359-1.703,1.455
		c1.016,0.08,1.463,0.743,1.463,1.767C307.59,403.363,307.654,403.603,307.895,403.603z M304.808,401.108h0.928
		c0.991,0,1.399-0.624,1.399-1.424c0-0.775-0.424-1.407-1.367-1.407h-0.96V401.108z"/>
	<path fill="#D9C9DD" d="M310.888,401.061v2.766h1.287c0.944,0,1.239-0.392,1.407-1.367h0.017v1.392h-3.87v-0.024h0.504v-5.549
		h-0.504v-0.023h3.79v1.391h-0.016c-0.168-0.976-0.464-1.367-1.407-1.367h-1.208v2.759h0.768c0.728,0,1-0.312,1.071-0.863h0.024
		v1.751h-0.024c-0.071-0.552-0.344-0.863-1.071-0.863H310.888z"/>
	<path stroke="#000000" stroke-width="0.25" stroke-miterlimit="10" d="M310.888,401.061v2.766h1.287
		c0.944,0,1.239-0.392,1.407-1.367h0.017v1.392h-3.87v-0.024h0.504v-5.549h-0.504v-0.023h3.79v1.391h-0.016
		c-0.168-0.976-0.464-1.367-1.407-1.367h-1.208v2.759h0.768c0.728,0,1-0.312,1.071-0.863h0.024v1.751h-0.024
		c-0.071-0.552-0.344-0.863-1.071-0.863H310.888z"/>
	<path fill="#D9C9DD" d="M319.319,402.235c-0.359,0-0.615-0.271-0.615-0.64c0-0.383,0.279-0.672,0.615-0.672
		c0.368,0,0.624,0.272,0.624,0.656C319.943,401.947,319.663,402.235,319.319,402.235"/>
	<path stroke="#000000" stroke-width="0.25" stroke-miterlimit="10" d="M319.319,402.235c-0.359,0-0.615-0.271-0.615-0.64
		c0-0.383,0.279-0.672,0.615-0.672c0.368,0,0.624,0.272,0.624,0.656C319.943,401.947,319.663,402.235,319.319,402.235z"/>
	<path fill="#D9C9DD" d="M325.936,401.061v2.766h1.287c0.942,0,1.239-0.392,1.407-1.367h0.016v1.392h-3.869v-0.024h0.503v-5.549
		h-0.503v-0.023h3.789v1.391h-0.016c-0.168-0.976-0.464-1.367-1.407-1.367h-1.207v2.759h0.768c0.728,0,0.999-0.312,1.071-0.863
		h0.023v1.751h-0.023c-0.072-0.552-0.344-0.863-1.071-0.863H325.936z"/>
	<path stroke="#000000" stroke-width="0.25" stroke-miterlimit="10" d="M325.936,401.061v2.766h1.287
		c0.942,0,1.239-0.392,1.407-1.367h0.016v1.392h-3.869v-0.024h0.503v-5.549h-0.503v-0.023h3.789v1.391h-0.016
		c-0.168-0.976-0.464-1.367-1.407-1.367h-1.207v2.759h0.768c0.728,0,0.999-0.312,1.071-0.863h0.023v1.751h-0.023
		c-0.072-0.552-0.344-0.863-1.071-0.863H325.936z"/>
	<path fill="#D9C9DD" d="M331.023,398.334v4.493c0,0.712,0.264,0.999,0.544,0.999h0.04v0.024h-1.119v-0.024
		c0.287,0,0.503-0.287,0.503-0.999v-4.55h-0.503v-0.023h1.23l3.095,5.301v-4.277c0-0.712-0.264-1-0.544-1h-0.04v-0.023h1.12v0.023
		c-0.288,0-0.504,0.288-0.504,1v4.573h-0.56L331.023,398.334z"/>
	<path stroke="#000000" stroke-width="0.25" stroke-miterlimit="10" d="M331.023,398.334v4.493c0,0.712,0.264,0.999,0.544,0.999
		h0.04v0.024h-1.119v-0.024c0.287,0,0.503-0.287,0.503-0.999v-4.55h-0.503v-0.023h1.23l3.095,5.301v-4.277c0-0.712-0.264-1-0.544-1
		h-0.04v-0.023h1.12v0.023c-0.288,0-0.504,0.288-0.504,1v4.573h-0.56L331.023,398.334z"/>
	<path fill="#D9C9DD" d="M337.992,403.826h1.287c0.943,0,1.239-0.392,1.407-1.367h0.016v1.392h-3.869v-0.024h0.503v-5.549h-0.503
		v-0.023h1.663v0.023h-0.504V403.826z"/>
	<path stroke="#000000" stroke-width="0.25" stroke-miterlimit="10" d="M337.992,403.826h1.287c0.943,0,1.239-0.392,1.407-1.367
		h0.016v1.392h-3.869v-0.024h0.503v-5.549h-0.503v-0.023h1.663v0.023h-0.504V403.826z"/>
	<polygon fill="#D9C9DD" points="342.304,398.277 342.304,398.254 343.959,398.254 343.959,398.277 343.463,398.277 
		343.463,403.826 343.959,403.826 343.959,403.851 342.304,403.851 342.304,403.826 342.808,403.826 342.808,398.277 	"/>
	<polygon stroke="#000000" stroke-width="0.25" stroke-miterlimit="10" points="342.304,398.277 342.304,398.254 343.959,398.254 
		343.959,398.277 343.463,398.277 343.463,403.826 343.959,403.826 343.959,403.851 342.304,403.851 342.304,403.826 
		342.808,403.826 342.808,398.277 	"/>
	<path fill="#D9C9DD" d="M349.215,402.691v-1.136h-0.592v-0.023h1.703v0.023h-0.465v2.431h-0.031v-0.104
		c0-0.4-0.08-0.576-0.304-0.576c-0.432,0-0.647,0.624-1.551,0.624c-1.392,0-2.415-1.271-2.415-2.847c0-1.655,1.047-2.91,2.503-2.91
		c0.688,0,0.879,0.296,1.271,0.296c0.177,0,0.28-0.12,0.28-0.296h0.024v1.671h-0.024c-0.2-0.951-0.56-1.639-1.551-1.639
		c-1.279,0-1.775,1.271-1.775,2.83c0,1.575,0.544,2.862,1.688,2.862C348.711,403.898,349.215,403.491,349.215,402.691"/>
	<path stroke="#000000" stroke-width="0.25" stroke-miterlimit="10" d="M349.215,402.691v-1.136h-0.592v-0.023h1.703v0.023h-0.465
		v2.431h-0.031v-0.104c0-0.4-0.08-0.576-0.304-0.576c-0.432,0-0.647,0.624-1.551,0.624c-1.392,0-2.415-1.271-2.415-2.847
		c0-1.655,1.047-2.91,2.503-2.91c0.688,0,0.879,0.296,1.271,0.296c0.177,0,0.28-0.12,0.28-0.296h0.024v1.671h-0.024
		c-0.2-0.951-0.56-1.639-1.551-1.639c-1.279,0-1.775,1.271-1.775,2.83c0,1.575,0.544,2.862,1.688,2.862
		C348.711,403.898,349.215,403.491,349.215,402.691z"/>
	<polygon fill="#D9C9DD" points="355.238,398.277 355.238,398.254 356.894,398.254 356.894,398.277 356.397,398.277 
		356.397,403.826 356.894,403.826 356.894,403.851 355.238,403.851 355.238,403.826 355.742,403.826 355.742,401.084 
		353.008,401.084 353.008,403.826 353.503,403.826 353.503,403.851 351.849,403.851 351.849,403.826 352.352,403.826 
		352.352,398.277 351.849,398.277 351.849,398.254 353.503,398.254 353.503,398.277 353.008,398.277 353.008,401.061 
		355.742,401.061 355.742,398.277 	"/>
	<polygon stroke="#000000" stroke-width="0.25" stroke-miterlimit="10" points="355.238,398.277 355.238,398.254 356.894,398.254 
		356.894,398.277 356.397,398.277 356.397,403.826 356.894,403.826 356.894,403.851 355.238,403.851 355.238,403.826 
		355.742,403.826 355.742,401.084 353.008,401.084 353.008,403.826 353.503,403.826 353.503,403.851 351.849,403.851 
		351.849,403.826 352.352,403.826 352.352,398.277 351.849,398.277 351.849,398.254 353.503,398.254 353.503,398.277 
		353.008,398.277 353.008,401.061 355.742,401.061 355.742,398.277 	"/>
	<path fill="#D9C9DD" d="M360.039,398.277c-0.992,0-1.399,0.368-1.479,1.352h-0.025v-1.671h0.025c0,0.176,0.103,0.296,0.278,0.296
		h3.662c0.176,0,0.28-0.12,0.28-0.296h0.023v1.671h-0.023c-0.08-0.983-0.488-1.352-1.479-1.352h-0.304v5.549h0.496v0.024h-1.655
		v-0.024h0.504v-5.549H360.039z"/>
	<path stroke="#000000" stroke-width="0.25" stroke-miterlimit="10" d="M360.039,398.277c-0.992,0-1.399,0.368-1.479,1.352h-0.025
		v-1.671h0.025c0,0.176,0.103,0.296,0.278,0.296h3.662c0.176,0,0.28-0.12,0.28-0.296h0.023v1.671h-0.023
		c-0.08-0.983-0.488-1.352-1.479-1.352h-0.304v5.549h0.496v0.024h-1.655v-0.024h0.504v-5.549H360.039z"/>
	<path fill="#D9C9DD" d="M365.607,401.061v2.766h1.287c0.943,0,1.239-0.392,1.407-1.367h0.016v1.392h-3.869v-0.024h0.503v-5.549
		h-0.503v-0.023h3.789v1.391h-0.016c-0.168-0.976-0.464-1.367-1.407-1.367h-1.207v2.759h0.768c0.728,0,0.999-0.312,1.071-0.863
		h0.023v1.751h-0.023c-0.072-0.552-0.344-0.863-1.071-0.863H365.607z"/>
	<path stroke="#000000" stroke-width="0.25" stroke-miterlimit="10" d="M365.607,401.061v2.766h1.287
		c0.943,0,1.239-0.392,1.407-1.367h0.016v1.392h-3.869v-0.024h0.503v-5.549h-0.503v-0.023h3.789v1.391h-0.016
		c-0.168-0.976-0.464-1.367-1.407-1.367h-1.207v2.759h0.768c0.728,0,0.999-0.312,1.071-0.863h0.023v1.751h-0.023
		c-0.072-0.552-0.344-0.863-1.071-0.863H365.607z"/>
	<path fill="#D9C9DD" d="M370.695,398.334v4.493c0,0.712,0.264,0.999,0.543,0.999h0.04v0.024h-1.119v-0.024
		c0.288,0,0.504-0.287,0.504-0.999v-4.55h-0.504v-0.023h1.231l3.094,5.301v-4.277c0-0.712-0.264-1-0.543-1h-0.04v-0.023h1.119v0.023
		c-0.288,0-0.504,0.288-0.504,1v4.573h-0.56L370.695,398.334z"/>
	<path stroke="#000000" stroke-width="0.25" stroke-miterlimit="10" d="M370.695,398.334v4.493c0,0.712,0.264,0.999,0.543,0.999
		h0.04v0.024h-1.119v-0.024c0.288,0,0.504-0.287,0.504-0.999v-4.55h-0.504v-0.023h1.231l3.094,5.301v-4.277c0-0.712-0.264-1-0.543-1
		h-0.04v-0.023h1.119v0.023c-0.288,0-0.504,0.288-0.504,1v4.573h-0.56L370.695,398.334z"/>
</g>
</svg>
